<svg width="20" height="20" viewBox="0 0 20 20" fill="none" xmlns="http://www.w3.org/2000/svg">
<path d="M14.0103 1.97902C15.073 1.9822 16.0913 2.40577 16.8428 3.15724C17.5942 3.9087 18.0178 4.927 18.021 5.98973V14.0103C18.0178 15.073 17.5942 16.0913 16.8428 16.8428C16.0913 17.5942 15.073 18.0178 14.0103 18.021H5.98973C4.927 18.0178 3.9087 17.5942 3.15724 16.8428C2.40577 16.0913 1.9822 15.073 1.97902 14.0103V5.98973C1.9822 4.927 2.40577 3.9087 3.15724 3.15724C3.9087 2.40577 4.927 1.9822 5.98973 1.97902H14.0103ZM14.0103 0.375H5.98973C2.90156 0.375 0.375 2.90156 0.375 5.98973V14.0103C0.375 17.0984 2.90156 19.625 5.98973 19.625H14.0103C17.0984 19.625 19.625 17.0984 19.625 14.0103V5.98973C19.625 2.90156 17.0984 0.375 14.0103 0.375Z" fill="black"/>
</svg>